<?xml version="1.0" standalone="no"?>
<!DOCTYPE svg PUBLIC "-//W3C//DTD SVG 20010904//EN"
 "http://www.w3.org/TR/2001/REC-SVG-20010904/DTD/svg10.dtd">
<svg version="1.0" xmlns="http://www.w3.org/2000/svg"
 width="200.000000pt" height="200.000000pt" viewBox="0 0 200.000000 200.000000"
 preserveAspectRatio="xMidYMid meet">
<metadata>
Created by potrace 1.14, written by Peter Selinger 2001-2017
</metadata>
<g transform="translate(0.000000,200.000000) scale(0.100000,-0.100000)"
fill="#000000" stroke="none">
<path d="M915 1986 c-56 -24 -433 -320 -444 -349 -11 -31 63 -107 105 -107 8
0 14 -10 15 -22 0 -29 0 -504 0 -540 l-1 -28 -120 0 -120 0 0 175 c0 109 -4
175 -10 176 -5 0 -23 1 -40 1 -69 0 -66 2 -65 -59 l0 -56 -58 -1 c-63 -1 -60
-6 -59 89 0 30 0 30 -56 30 l-57 0 -3 -540 c-2 -527 -2 -541 18 -573 35 -58
49 -59 443 -59 l357 -1 1 22 c0 11 2 100 3 196 3 184 10 219 48 244 24 15 117
16 150 2 37 -16 46 -71 44 -272 l-1 -191 362 0 c333 0 365 1 392 18 66 40 64
22 64 673 0 661 8 604 -76 598 l-44 -4 2 -54 c1 -30 -1 -54 -4 -55 -3 -1 -30
-2 -58 -3 l-53 -3 0 59 0 58 -60 0 -60 0 0 -235 0 -236 -117 3 -118 3 0 293
c0 233 3 292 13 292 42 0 102 61 102 102 0 11 -117 113 -291 252 -24 20 -131
92 -154 104 -15 7 -28 7 -50 -2z m145 -686 l0 -120 -27 -1 c-221 -5 -213 -6
-214 19 -1 29 -1 188 0 207 1 12 21 15 121 15 l120 0 0 -120z m-825 -420 l0
-55 -58 -2 c-61 -2 -59 -3 -59 57 0 63 -2 61 60 58 l57 -3 0 -55z m1530 0 l0
-55 -57 -2 c-40 -2 -58 1 -59 10 -1 6 -2 34 -3 60 l-2 48 60 -3 61 -3 0 -55z
m-1413 -307 c2 -9 1 -36 -1 -60 l-3 -44 -57 3 -56 3 0 57 0 58 57 0 c45 0 57
-3 60 -17z m238 -44 l0 -59 -60 0 -60 0 0 59 0 59 60 1 60 0 0 -60z m820 1 l0
-61 -57 3 -58 3 0 50 c-1 28 0 53 2 56 1 3 27 7 58 8 l55 2 0 -61z m238 -1 l2
-59 -60 0 -60 0 0 60 0 61 58 -2 58 -2 2 -58z"/>
</g>
</svg>
