<?xml version="1.0" standalone="no"?><!DOCTYPE svg PUBLIC "-//W3C//DTD SVG 1.1//EN" "http://www.w3.org/Graphics/SVG/1.1/DTD/svg11.dtd"><svg t="1667891960139" class="icon" viewBox="0 0 1024 1024" version="1.1" xmlns="http://www.w3.org/2000/svg" p-id="2354" xmlns:xlink="http://www.w3.org/1999/xlink" width="200" height="200"><path d="M963.764706 301.176471h-60.235294v60.235294h-60.235294v-59.331765L783.058824 301.176471v240.941176h-120.470589V240.941176c33.069176 0 60.235294-26.142118 60.235294-58.428235 0 0-207.390118-179.983059-240.459294-179.983059h-0.963764c-33.008941 0-240.399059 179.983059-240.399059 179.983059 0 32.286118 29.696 58.428235 62.704941 58.428235v301.176471H179.501176V361.411765s-27.527529 3.312941-58.970352 0.903529V421.647059h-60.235295V361.411765h-60.235294v539.166117c0 33.490824 29.455059 60.656941 62.765177 60.656942H421.647059v-174.441412c0-85.955765 62.704941-67.764706 62.704941-67.764706s62.765176-18.191059 62.765176 67.764706c0 0 0.120471 171.911529 0 174.441412H903.529412c33.310118 0 60.235294-29.334588 60.235294-65.475765V301.176471zM60.235294 602.352941V542.117647h60.235294v60.235294H60.235294z m120.470588 180.705883H120.470588v-60.235295h60.235294v60.235295z m120.470589 0H240.941176v-60.235295h60.235295v60.235295z m240.941176-361.411765H418.816V297.261176H542.117647V421.647059z m180.705882 361.411765h-60.235294v-60.235295h60.235294v60.235295z m120.470589 0h-60.235294v-60.235295h60.235294v60.235295z m60.235294-180.705883h-61.500236V542.117647H903.529412v60.235294z" fill="#515151" p-id="2355"></path></svg>